  0
SECTION
  2
HEADER
  9
$ACADVER
  1
AC1009
  9
$INSBASE
 10
0.0
 20
0.0
 30
0.0
  9
$EXTMIN
 10
-1000.0610304997070443
 20
-1000.0610304997070443
 30
-0.0015258207003583
  9
$EXTMAX
 10
1000.0610398129330179
 20
1000.0610398129330179
 30
0.0000000349246037
  9
$LIMMIN
 10
0.0
 20
0.0
  9
$LIMMAX
 10
420.0
 20
297.0
  9
$ORTHOMODE
 70
     0
  9
$REGENMODE
 70
     1
  9
$FILLMODE
 70
     1
  9
$QTEXTMODE
 70
     0
  9
$MIRRTEXT
 70
     0
  9
$DRAGMODE
 70
     2
  9
$LTSCALE
 40
1.0
  9
$OSMODE
 70
     1
  9
$ATTMODE
 70
     1
  9
$TEXTSIZE
 40
2.5
  9
$TRACEWID
 40
1.0
  9
$TEXTSTYLE
  7
STANDARD
  9
$CLAYER
  8
0
  9
$CELTYPE
  6
BYLAYER
  9
$CECOLOR
 62
   256
  9
$DIMSCALE
 40
1.0
  9
$DIMASZ
 40
2.5
  9
$DIMEXO
 40
0.625
  9
$DIMDLI
 40
3.75
  9
$DIMRND
 40
0.0
  9
$DIMDLE
 40
0.0
  9
$DIMEXE
 40
1.25
  9
$DIMTP
 40
0.0
  9
$DIMTM
 40
0.0
  9
$DIMTXT
 40
2.5
  9
$DIMCEN
 40
2.5
  9
$DIMTSZ
 40
0.0
  9
$DIMTOL
 70
     0
  9
$DIMLIM
 70
     0
  9
$DIMTIH
 70
     0
  9
$DIMTOH
 70
     0
  9
$DIMSE1
 70
     0
  9
$DIMSE2
 70
     0
  9
$DIMTAD
 70
     1
  9
$DIMZIN
 70
     8
  9
$DIMBLK
  1

  9
$DIMASO
 70
     1
  9
$DIMSHO
 70
     1
  9
$DIMPOST
  1

  9
$DIMAPOST
  1

  9
$DIMALT
 70
     0
  9
$DIMALTD
 70
     3
  9
$DIMALTF
 40
0.03937007874016
  9
$DIMLFAC
 40
1.0
  9
$DIMTOFL
 70
     1
  9
$DIMTVP
 40
0.0
  9
$DIMTIX
 70
     0
  9
$DIMSOXD
 70
     0
  9
$DIMSAH
 70
     0
  9
$DIMBLK1
  1

  9
$DIMBLK2
  1

  9
$DIMSTYLE
  2
ISO-25
  9
$DIMCLRD
 70
     0
  9
$DIMCLRE
 70
     0
  9
$DIMCLRT
 70
     0
  9
$DIMTFAC
 40
1.0
  9
$DIMGAP
 40
0.625
  9
$LUNITS
 70
     2
  9
$LUPREC
 70
     4
  9
$SKETCHINC
 40
1.0
  9
$FILLETRAD
 40
0.0
  9
$AUNITS
 70
     0
  9
$AUPREC
 70
     0
  9
$MENU
  1
.
  9
$ELEVATION
 40
0.0
  9
$PELEVATION
 40
0.0
  9
$THICKNESS
 40
0.0
  9
$LIMCHECK
 70
     0
  9
$BLIPMODE
 70
     0
  9
$CHAMFERA
 40
0.0
  9
$CHAMFERB
 40
0.0
  9
$SKPOLY
 70
     0
  9
$TDCREATE
 40
2460300.9018287039361894
  9
$TDUPDATE
 40
2460300.9123495370149612
  9
$TDINDWG
 40
0.0105208333
  9
$TDUSRTIMER
 40
0.0105208333
  9
$USRTIMER
 70
     1
  9
$ANGBASE
 50
0.0
  9
$ANGDIR
 70
     0
  9
$PDMODE
 70
     0
  9
$PDSIZE
 40
0.0
  9
$PLINEWID
 40
0.0
  9
$COORDS
 70
     1
  9
$SPLFRAME
 70
     0
  9
$SPLINETYPE
 70
     6
  9
$SPLINESEGS
 70
     8
  9
$ATTDIA
 70
     1
  9
$ATTREQ
 70
     1
  9
$HANDLING
 70
     1
  9
$HANDSEED
  5
42F
  9
$SURFTAB1
 70
     6
  9
$SURFTAB2
 70
     6
  9
$SURFTYPE
 70
     6
  9
$SURFU
 70
     6
  9
$SURFV
 70
     6
  9
$UCSNAME
  2

  9
$UCSORG
 10
0.0
 20
0.0
 30
0.0
  9
$UCSXDIR
 10
1.0
 20
0.0
 30
0.0
  9
$UCSYDIR
 10
0.0
 20
1.0
 30
0.0
  9
$PUCSNAME
  2

  9
$PUCSORG
 10
0.0
 20
0.0
 30
0.0
  9
$PUCSXDIR
 10
1.0
 20
0.0
 30
0.0
  9
$PUCSYDIR
 10
0.0
 20
1.0
 30
0.0
  9
$USERI1
 70
     0
  9
$USERI2
 70
     0
  9
$USERI3
 70
     0
  9
$USERI4
 70
     0
  9
$USERI5
 70
     0
  9
$USERR1
 40
0.0
  9
$USERR2
 40
0.0
  9
$USERR3
 40
0.0
  9
$USERR4
 40
0.0
  9
$USERR5
 40
0.0
  9
$WORLDVIEW
 70
     1
  9
$SHADEDGE
 70
     3
  9
$SHADEDIF
 70
    70
  9
$TILEMODE
 70
     1
  9
$MAXACTVP
 70
    64
  9
$PLIMCHECK
 70
     0
  9
$PEXTMIN
 10
0.0
 20
0.0
 30
0.0
  9
$PEXTMAX
 10
0.0
 20
0.0
 30
0.0
  9
$PLIMMIN
 10
0.0
 20
0.0
  9
$PLIMMAX
 10
12.0
 20
9.0
  9
$UNITMODE
 70
     0
  9
$VISRETAIN
 70
     1
  9
$PLINEGEN
 70
     0
  9
$PSLTSCALE
 70
     1
  0
ENDSEC
  0
SECTION
  2
TABLES
  0
TABLE
  2
VPORT
 70
     1
  0
VPORT
  2
*ACTIVE
 70
     0
 10
0.0
 20
0.0
 11
1.0
 21
1.0
 12
-484.0853853345024049
 22
1.2007641476877771
 13
0.0
 23
0.0
 14
10.0
 24
10.0
 15
10.0
 25
10.0
 16
0.0
 26
0.0
 36
1.0
 17
0.0
 27
0.0
 37
0.0
 40
3225.0271132780758307
 41
2.6323731138545949
 42
50.0
 43
0.0
 44
0.0
 50
0.0
 51
0.0
 71
     0
 72
  1000
 73
     1
 74
     3
 75
     0
 76
     1
 77
     0
 78
     0
  0
ENDTAB
  0
TABLE
  2
LTYPE
 70
     2
  0
LTYPE
  2
CONTINUOUS
 70
     0
  3
Solid line
 72
    65
 73
     0
 40
0.0
  0
ENDTAB
  0
TABLE
  2
LAYER
 70
     1
  0
LAYER
  2
0
 70
     0
 62
     7
  6
CONTINUOUS
  0
ENDTAB
  0
TABLE
  2
STYLE
 70
     2
  0
STYLE
  2
STANDARD
 70
     0
 40
0.0
 41
1.0
 50
0.0
 71
     0
 42
2.5
  3
txt
  4

  0
STYLE
  2
ANNOTATIVE
 70
     0
 40
0.0
 41
1.0
 50
0.0
 71
     0
 42
2.5
  3
txt
  4

  0
ENDTAB
  0
TABLE
  2
VIEW
 70
     0
  0
ENDTAB
  0
TABLE
  2
UCS
 70
     0
  0
ENDTAB
  0
TABLE
  2
APPID
 70
     9
  0
APPID
  2
ACAD
 70
     0
  0
APPID
  2
ACAD_PSEXT
 70
     0
  0
APPID
  2
ACADANNOPO
 70
     0
  0
APPID
  2
ACADANNOTATIVE
 70
     0
  0
APPID
  2
ACAD_DSTYLE_DIMJAG
 70
     0
  0
APPID
  2
ACAD_DSTYLE_DIMTALN
 70
     0
  0
APPID
  2
ACAD_MLEADERVER
 70
     0
  0
APPID
  2
ACAD_NAV_VCDISPLAY
 70
     0
  0
APPID
  2
ACAD_EXEMPT_FROM_CAD_STANDARDS
 70
     0
  0
ENDTAB
  0
TABLE
  2
DIMSTYLE
 70
     4
  0
DIMSTYLE
  2
STANDARD
 70
     0
  3

  4

  5

  6

  7

 40
1.0
 41
0.18
 42
0.0625
 43
0.38
 44
0.18
 45
0.0
 46
0.0
 47
0.0
 48
0.0
140
0.18
141
0.09
142
0.0
143
25.3999999999999986
144
1.0
145
0.0
146
1.0
147
0.09
 71
     0
 72
     0
 73
     1
 74
     1
 75
     0
 76
     0
 77
     0
 78
     0
170
     0
171
     2
172
     0
173
     0
174
     0
175
     0
176
     0
177
     0
178
     0
  0
DIMSTYLE
  2
ANNOTATIVE
 70
     0
  3

  4

  5

  6

  7

 40
0.0
 41
2.5
 42
0.625
 43
3.75
 44
1.25
 45
0.0
 46
0.0
 47
0.0
 48
0.0
140
2.5
141
2.5
142
0.0
143
0.03937007874016
144
1.0
145
0.0
146
1.0
147
0.625
 71
     0
 72
     0
 73
     0
 74
     0
 75
     0
 76
     0
 77
     1
 78
     8
170
     0
171
     3
172
     1
173
     0
174
     0
175
     0
176
     0
177
     0
178
     0
  0
DIMSTYLE
  2
ISO-25
 70
     0
  3

  4

  5

  6

  7

 40
1.0
 41
2.5
 42
0.625
 43
3.75
 44
1.25
 45
0.0
 46
0.0
 47
0.0
 48
0.0
140
2.5
141
2.5
142
0.0
143
0.03937007874016
144
1.0
145
0.0
146
1.0
147
0.625
 71
     0
 72
     0
 73
     0
 74
     0
 75
     0
 76
     0
 77
     1
 78
     8
170
     0
171
     3
172
     1
173
     0
174
     0
175
     0
176
     0
177
     0
178
     0
  0
ENDTAB
  0
ENDSEC
  0
SECTION
  2
BLOCKS
  0
BLOCK
  8
0
  2
$MODEL_SPACE
 70
     0
 10
0.0
 20
0.0
 30
0.0
  3
$MODEL_SPACE
  1

  0
ENDBLK
  5
21
  8
0
  0
BLOCK
 67
     1
  8
0
  2
$PAPER_SPACE
 70
     0
 10
0.0
 20
0.0
 30
0.0
  3
$PAPER_SPACE
  1

  0
ENDBLK
  5
D5
 67
     1
  8
0
  0
ENDSEC
  0
SECTION
  2
ENTITIES
  0
LINE
  5
29C
  8
0
 10
0.0
 20
0.0
 30
0.0
 11
1000.0
 21
0.0
 31
0.0
  0
LINE
  5
29D
  8
0
 10
0.0
 20
0.0
 30
0.0
 11
996.1946980917455221
 21
87.1557427476581665
 31
0.0
  0
LINE
  5
29E
  8
0
 10
0.0
 20
0.0
 30
0.0
 11
984.8077530122078542
 21
173.6481776669303088
 31
0.0
  0
LINE
  5
29F
  8
0
 10
0.0
 20
0.0
 30
0.0
 11
965.9258262890682545
 21
258.8190451025207039
 31
0.0
  0
LINE
  5
2A0
  8
0
 10
0.0
 20
0.0
 30
0.0
 11
939.6926207859082751
 21
342.0201433256686983
 31
0.0
  0
LINE
  5
2A1
  8
0
 10
0.0
 20
0.0
 30
0.0
 11
906.3077870366497564
 21
422.6182617406993245
 31
0.0
  0
LINE
  5
2A2
  8
0
 10
0.0
 20
0.0
 30
0.0
 11
866.0254037844384811
 21
499.9999999999998863
 31
0.0
  0
LINE
  5
2A3
  8
0
 10
0.0
 20
0.0
 30
0.0
 11
819.1520442889916467
 21
573.5764363510460271
 31
0.0
  0
LINE
  5
2A4
  8
0
 10
0.0
 20
0.0
 30
0.0
 11
766.0444431189780516
 21
642.7876096865392128
 31
0.0
  0
LINE
  5
2A5
  8
0
 10
0.0
 20
0.0
 30
0.0
 11
707.1067811865475505
 21
707.1067811865474368
 31
0.0
  0
LINE
  5
2A6
  8
0
 10
0.0
 20
0.0
 30
0.0
 11
642.7876096865394402
 21
766.044443118977938
 31
0.0
  0
LINE
  5
2A7
  8
0
 10
0.0
 20
0.0
 30
0.0
 11
573.5764363510461408
 21
819.1520442889916467
 31
0.0
  0
LINE
  5
2A8
  8
0
 10
0.0
 20
0.0
 30
0.0
 11
500.0
 21
866.0254037844384811
 31
0.0
  0
LINE
  5
2A9
  8
0
 10
0.0
 20
0.0
 30
0.0
 11
422.618261740699495
 21
906.3077870366499837
 31
0.0
  0
LINE
  5
2AA
  8
0
 10
0.0
 20
0.0
 30
0.0
 11
342.0201433256688119
 21
939.6926207859082751
 31
0.0
  0
LINE
  5
2AB
  8
0
 10
0.0
 20
0.0
 30
0.0
 11
258.8190451025208745
 21
965.9258262890681408
 31
0.0
  0
LINE
  5
2AC
  8
0
 10
0.0
 20
0.0
 30
0.0
 11
173.6481776669305077
 21
984.8077530122078542
 31
0.0
  0
LINE
  5
2AD
  8
0
 10
0.0
 20
0.0
 30
0.0
 11
87.1557427476583371
 21
996.1946980917455221
 31
0.0
  0
LINE
  5
2AE
  8
0
 10
0.0
 20
0.0
 30
0.0
 11
0.0000000000002274
 21
999.9999999999997726
 31
0.0
  0
LINE
  5
2AF
  8
0
 10
0.0
 20
0.0
 30
0.0
 11
-87.155742747657996
 21
996.1946980917455221
 31
0.0
  0
LINE
  5
2B0
  8
0
 10
0.0
 20
0.0
 30
0.0
 11
-173.6481776669301098
 21
984.8077530122080816
 31
0.0
  0
LINE
  5
2B1
  8
0
 10
0.0
 20
0.0
 30
0.0
 11
-258.8190451025204766
 21
965.9258262890682545
 31
0.0
  0
LINE
  5
2B2
  8
0
 10
0.0
 20
0.0
 30
0.0
 11
-342.0201433256685277
 21
939.6926207859085025
 31
0.0
  0
LINE
  5
2B3
  8
0
 10
0.0
 20
0.0
 30
0.0
 11
-422.6182617406990971
 21
906.3077870366499837
 31
0.0
  0
LINE
  5
2B4
  8
0
 10
0.0
 20
0.0
 30
0.0
 11
-499.9999999999996021
 21
866.0254037844389359
 31
0.0
  0
LINE
  5
2B5
  8
0
 10
0.0
 20
0.0
 30
0.0
 11
-573.5764363510459134
 21
819.1520442889916467
 31
0.0
  0
LINE
  5
2B6
  8
0
 10
0.0
 20
0.0
 30
0.0
 11
-642.7876096865389854
 21
766.0444431189780516
 31
0.0
  0
LINE
  5
2B7
  8
0
 10
0.0
 20
0.0
 30
0.0
 11
-707.1067811865470958
 21
707.1067811865475505
 31
0.0
  0
LINE
  5
2B8
  8
0
 10
0.0
 20
0.0
 30
0.0
 11
-766.0444431189778243
 21
642.7876096865395539
 31
0.0
  0
LINE
  5
2B9
  8
0
 10
0.0
 20
0.0
 30
0.0
 11
-819.1520442889913056
 21
573.5764363510462545
 31
0.0
  0
LINE
  5
2BA
  8
0
 10
0.0
 20
0.0
 30
0.0
 11
-866.0254037844382538
 21
500.0000000000001137
 31
0.0
  0
LINE
  5
2BB
  8
0
 10
0.0
 20
0.0
 30
0.0
 11
-906.3077870366496427
 21
422.6182617406996087
 31
0.0
  0
LINE
  5
2BC
  8
0
 10
0.0
 20
0.0
 30
0.0
 11
-939.6926207859082751
 21
342.0201433256689825
 31
0.0
  0
LINE
  5
2BD
  8
0
 10
0.0
 20
0.0
 30
0.0
 11
-965.9258262890681408
 21
258.8190451025209882
 31
0.0
  0
LINE
  5
2BE
  8
0
 10
0.0
 20
0.0
 30
0.0
 11
-984.8077530122078542
 21
173.6481776669307067
 31
0.0
  0
LINE
  5
2BF
  8
0
 10
0.0
 20
0.0
 30
0.0
 11
-996.1946980917455221
 21
87.1557427476585076
 31
0.0
  0
LINE
  5
2C0
  8
0
 10
0.0
 20
0.0
 30
0.0
 11
-999.9999999999997726
 21
0.0000000000003979
 31
0.0
  0
LINE
  5
2C1
  8
0
 10
0.0
 20
0.0
 30
0.0
 11
-996.1946980917455221
 21
-87.1557427476578255
 31
0.0
  0
LINE
  5
2C2
  8
0
 10
0.0
 20
0.0
 30
0.0
 11
-984.8077530122078542
 21
-173.6481776669299961
 31
0.0
  0
LINE
  5
2C3
  8
0
 10
0.0
 20
0.0
 30
0.0
 11
-965.9258262890682545
 21
-258.819045102520306
 31
0.0
  0
LINE
  5
2C4
  8
0
 10
0.0
 20
0.0
 30
0.0
 11
-939.6926207859082751
 21
-342.0201433256683003
 31
0.0
  0
LINE
  5
2C5
  8
0
 10
0.0
 20
0.0
 30
0.0
 11
-906.3077870366499837
 21
-422.6182617406989834
 31
0.0
  0
LINE
  5
2C6
  8
0
 10
0.0
 20
0.0
 30
0.0
 11
-866.0254037844387085
 21
-499.9999999999994884
 31
0.0
  0
LINE
  5
2C7
  8
0
 10
0.0
 20
0.0
 30
0.0
 11
-819.1520442889918741
 21
-573.5764363510455723
 31
0.0
  0
LINE
  5
2C8
  8
0
 10
0.0
 20
0.0
 30
0.0
 11
-766.0444431189781653
 21
-642.7876096865388718
 31
0.0
  0
LINE
  5
2C9
  8
0
 10
0.0
 20
0.0
 30
0.0
 11
-707.1067811865475505
 21
-707.1067811865470958
 31
0.0
  0
LINE
  5
2CA
  8
0
 10
0.0
 20
0.0
 30
0.0
 11
-642.7876096865395539
 21
-766.0444431189777106
 31
0.0
  0
LINE
  5
2CB
  8
0
 10
0.0
 20
0.0
 30
0.0
 11
-573.5764363510463681
 21
-819.1520442889913056
 31
0.0
  0
LINE
  5
2CC
  8
0
 10
0.0
 20
0.0
 30
0.0
 11
-500.0000000000005116
 21
-866.0254037844382538
 31
0.0
  0
LINE
  5
2CD
  8
0
 10
0.0
 20
0.0
 30
0.0
 11
-422.618261740700575
 21
-906.307787036649529
 31
0.0
  0
LINE
  5
2CE
  8
0
 10
0.0
 20
0.0
 30
0.0
 11
-342.020143325669892
 21
-939.6926207859078204
 31
0.0
  0
LINE
  5
2CF
  8
0
 10
0.0
 20
0.0
 30
0.0
 11
-258.819045102522125
 21
-965.925826289067686
 31
0.0
  0
LINE
  5
2D0
  8
0
 10
0.0
 20
0.0
 30
0.0
 11
-173.6481776669317014
 21
-984.8077530122077405
 31
0.0
  0
LINE
  5
2D1
  8
0
 10
0.0
 20
0.0
 30
0.0
 11
-87.1557427476594739
 21
-996.1946980917450674
 31
0.0
  0
LINE
  5
2D2
  8
0
 10
0.0
 20
0.0
 30
0.0
 11
-0.0000000000014211
 21
-999.9999999999997726
 31
0.0
  0
LINE
  5
2E4
  8
0
 10
0.0
 20
0.0
 30
0.0
 11
87.1557427476562054
 21
-996.1946980917457495
 31
0.0
  0
LINE
  5
2E5
  8
0
 10
0.0
 20
0.0
 30
0.0
 11
173.6481776669284045
 21
-984.807753012208309
 31
0.0
  0
LINE
  5
2E6
  8
0
 10
0.0
 20
0.0
 30
0.0
 11
258.8190451025188281
 21
-965.9258262890685955
 31
0.0
  0
LINE
  5
2E7
  8
0
 10
0.0
 20
0.0
 30
0.0
 11
342.0201433256668224
 21
-939.6926207859089573
 31
0.0
  0
LINE
  5
2E8
  8
0
 10
0.0
 20
0.0
 30
0.0
 11
422.6182617406975055
 21
-906.3077870366506659
 31
0.0
  0
LINE
  5
2E9
  8
0
 10
0.0
 20
0.0
 30
0.0
 11
499.999999999998181
 21
-866.025403784439618
 31
0.0
  0
LINE
  5
2EA
  8
0
 10
0.0
 20
0.0
 30
0.0
 11
573.5764363510444355
 21
-819.1520442889928972
 31
0.0
  0
LINE
  5
2EB
  8
0
 10
0.0
 20
0.0
 30
0.0
 11
642.7876096865377349
 21
-766.0444431189793022
 31
0.0
  0
LINE
  5
2EC
  8
0
 10
0.0
 20
0.0
 30
0.0
 11
707.1067811865460726
 21
-707.1067811865489148
 31
0.0
  0
LINE
  5
2ED
  8
0
 10
0.0
 20
0.0
 30
0.0
 11
766.0444431189765737
 21
-642.7876096865409181
 31
0.0
  0
LINE
  5
2EE
  8
0
 10
0.0
 20
0.0
 30
0.0
 11
819.1520442889903961
 21
-573.5764363510477324
 31
0.0
  0
LINE
  5
2EF
  8
0
 10
0.0
 20
0.0
 30
0.0
 11
866.0254037844373443
 21
-500.000000000001819
 31
0.0
  0
LINE
  5
2F0
  8
0
 10
0.0
 20
0.0
 30
0.0
 11
906.3077870366490743
 21
-422.618261740701314
 31
0.0
  0
LINE
  5
2F1
  8
0
 10
0.0
 20
0.0
 30
0.0
 11
939.692620785907593
 21
-342.0201433256706878
 31
0.0
  0
LINE
  5
2F2
  8
0
 10
0.0
 20
0.0
 30
0.0
 11
965.925826289067686
 21
-258.8190451025228072
 31
0.0
  0
LINE
  5
2F3
  8
0
 10
0.0
 20
0.0
 30
0.0
 11
984.8077530122075132
 21
-173.6481776669324972
 31
0.0
  0
LINE
  5
2F4
  8
0
 10
0.0
 20
0.0
 30
0.0
 11
996.1946980917452947
 21
-87.155742747660284
 31
0.0
  0
LINE
  5
397
  8
0
 10
1000.0
 20
0.0
 30
0.0
 11
996.1946980917455221
 21
87.1557427476581665
 31
0.0
  0
LINE
  5
398
  8
0
 10
996.1946980917455221
 20
87.1557427476581665
 30
0.0
 11
984.8077530122078542
 21
173.6481776669303088
 31
0.0
  0
LINE
  5
399
  8
0
 10
984.8077530122078542
 20
173.6481776669303088
 30
0.0
 11
965.9258262890682545
 21
258.8190451025207039
 31
0.0
  0
LINE
  5
39A
  8
0
 10
965.9258262890682545
 20
258.8190451025207039
 30
0.0
 11
939.6926207859082751
 21
342.0201433256686983
 31
0.0
  0
LINE
  5
39B
  8
0
 10
939.6926207859082751
 20
342.0201433256686983
 30
0.0
 11
906.3077870366497564
 21
422.6182617406993245
 31
0.0
  0
LINE
  5
39C
  8
0
 10
906.3077870366497564
 20
422.6182617406993245
 30
0.0
 11
866.0254037844384811
 21
499.9999999999998863
 31
0.0
  0
LINE
  5
39D
  8
0
 10
866.0254037844384811
 20
499.9999999999998863
 30
0.0
 11
819.1520442889916467
 21
573.5764363510460271
 31
0.0
  0
LINE
  5
39E
  8
0
 10
819.1520442889916467
 20
573.5764363510460271
 30
0.0
 11
766.0444431189780516
 21
642.7876096865392128
 31
0.0
  0
LINE
  5
39F
  8
0
 10
766.0444431189780516
 20
642.7876096865392128
 30
0.0
 11
707.1067811865475505
 21
707.1067811865474368
 31
0.0
  0
LINE
  5
3A0
  8
0
 10
707.1067811865475505
 20
707.1067811865474368
 30
0.0
 11
642.7876096865394402
 21
766.044443118977938
 31
0.0
  0
LINE
  5
3A1
  8
0
 10
642.7876096865394402
 20
766.044443118977938
 30
0.0
 11
573.5764363510461408
 21
819.1520442889916467
 31
0.0
  0
LINE
  5
3A2
  8
0
 10
573.5764363510461408
 20
819.1520442889916467
 30
0.0
 11
500.0
 21
866.0254037844384811
 31
0.0
  0
LINE
  5
3A3
  8
0
 10
500.0
 20
866.0254037844384811
 30
0.0
 11
422.618261740699495
 21
906.3077870366499837
 31
0.0
  0
LINE
  5
3A4
  8
0
 10
422.618261740699495
 20
906.3077870366499837
 30
0.0
 11
342.0201433256688119
 21
939.6926207859082751
 31
0.0
  0
LINE
  5
3A5
  8
0
 10
342.0201433256688119
 20
939.6926207859082751
 30
0.0
 11
258.8190451025208745
 21
965.9258262890681408
 31
0.0
  0
LINE
  5
3A6
  8
0
 10
258.8190451025208745
 20
965.9258262890681408
 30
0.0
 11
173.6481776669305077
 21
984.8077530122078542
 31
0.0
  0
LINE
  5
3A7
  8
0
 10
173.6481776669305077
 20
984.8077530122078542
 30
0.0
 11
87.1557427476583371
 21
996.1946980917455221
 31
0.0
  0
LINE
  5
3A8
  8
0
 10
87.1557427476583371
 20
996.1946980917455221
 30
0.0
 11
0.0000000000002274
 21
999.9999999999997726
 31
0.0
  0
LINE
  5
3A9
  8
0
 10
0.0000000000002274
 20
999.9999999999997726
 30
0.0
 11
-87.155742747657996
 21
996.1946980917455221
 31
0.0
  0
LINE
  5
3AA
  8
0
 10
-87.155742747657996
 20
996.1946980917455221
 30
0.0
 11
-173.6481776669301098
 21
984.8077530122080816
 31
0.0
  0
LINE
  5
3AB
  8
0
 10
-173.6481776669301098
 20
984.8077530122080816
 30
0.0
 11
-258.8190451025204766
 21
965.9258262890682545
 31
0.0
  0
LINE
  5
3AC
  8
0
 10
-258.8190451025204766
 20
965.9258262890682545
 30
0.0
 11
-342.0201433256685277
 21
939.6926207859085025
 31
0.0
  0
LINE
  5
3AD
  8
0
 10
-342.0201433256685277
 20
939.6926207859085025
 30
0.0
 11
-422.6182617406990971
 21
906.3077870366499837
 31
0.0
  0
LINE
  5
3AE
  8
0
 10
-422.6182617406990971
 20
906.3077870366499837
 30
0.0
 11
-499.9999999999996021
 21
866.0254037844389359
 31
0.0
  0
LINE
  5
3AF
  8
0
 10
-499.9999999999996021
 20
866.0254037844389359
 30
0.0
 11
-573.5764363510459134
 21
819.1520442889916467
 31
0.0
  0
LINE
  5
3B0
  8
0
 10
-573.5764363510459134
 20
819.1520442889916467
 30
0.0
 11
-642.7876096865389854
 21
766.0444431189780516
 31
0.0
  0
LINE
  5
3B1
  8
0
 10
-642.7876096865389854
 20
766.0444431189780516
 30
0.0
 11
-707.1067811865470958
 21
707.1067811865475505
 31
0.0
  0
LINE
  5
3B2
  8
0
 10
-707.1067811865470958
 20
707.1067811865475505
 30
0.0
 11
-766.0444431189778243
 21
642.7876096865395539
 31
0.0
  0
LINE
  5
3B3
  8
0
 10
-766.0444431189778243
 20
642.7876096865395539
 30
0.0
 11
-819.1520442889913056
 21
573.5764363510462545
 31
0.0
  0
LINE
  5
3B4
  8
0
 10
-819.1520442889913056
 20
573.5764363510462545
 30
0.0
 11
-866.0254037844382538
 21
500.0000000000001137
 31
0.0
  0
LINE
  5
3B5
  8
0
 10
-866.0254037844382538
 20
500.0000000000001137
 30
0.0
 11
-906.3077870366496427
 21
422.6182617406996087
 31
0.0
  0
LINE
  5
3B6
  8
0
 10
-906.3077870366496427
 20
422.6182617406996087
 30
0.0
 11
-939.6926207859082751
 21
342.0201433256689825
 31
0.0
  0
LINE
  5
3B7
  8
0
 10
-939.6926207859082751
 20
342.0201433256689825
 30
0.0
 11
-965.9258262890681408
 21
258.8190451025209882
 31
0.0
  0
LINE
  5
3B8
  8
0
 10
-965.9258262890681408
 20
258.8190451025209882
 30
0.0
 11
-984.8077530122078542
 21
173.6481776669307067
 31
0.0
  0
LINE
  5
3B9
  8
0
 10
-984.8077530122078542
 20
173.6481776669307067
 30
0.0
 11
-996.1946980917455221
 21
87.1557427476585076
 31
0.0
  0
LINE
  5
3BA
  8
0
 10
-996.1946980917455221
 20
87.1557427476585076
 30
0.0
 11
-999.9999999999997726
 21
0.0000000000003979
 31
0.0
  0
LINE
  5
3BB
  8
0
 10
-999.9999999999997726
 20
0.0000000000003979
 30
0.0
 11
-996.1946980917455221
 21
-87.1557427476578255
 31
0.0
  0
LINE
  5
3BC
  8
0
 10
-996.1946980917455221
 20
-87.1557427476578255
 30
0.0
 11
-984.8077530122078542
 21
-173.6481776669299961
 31
0.0
  0
LINE
  5
3BD
  8
0
 10
-984.8077530122078542
 20
-173.6481776669299961
 30
0.0
 11
-965.9258262890682545
 21
-258.819045102520306
 31
0.0
  0
LINE
  5
3BE
  8
0
 10
-965.9258262890682545
 20
-258.819045102520306
 30
0.0
 11
-939.6926207859082751
 21
-342.0201433256683003
 31
0.0
  0
LINE
  5
3BF
  8
0
 10
-939.6926207859082751
 20
-342.0201433256683003
 30
0.0
 11
-906.3077870366499837
 21
-422.6182617406989834
 31
0.0
  0
LINE
  5
3C0
  8
0
 10
-906.3077870366499837
 20
-422.6182617406989834
 30
0.0
 11
-866.0254037844387085
 21
-499.9999999999994884
 31
0.0
  0
LINE
  5
3C1
  8
0
 10
-866.0254037844387085
 20
-499.9999999999994884
 30
0.0
 11
-819.1520442889918741
 21
-573.5764363510455723
 31
0.0
  0
LINE
  5
3C2
  8
0
 10
-819.1520442889918741
 20
-573.5764363510455723
 30
0.0
 11
-766.0444431189781653
 21
-642.7876096865388718
 31
0.0
  0
LINE
  5
3C3
  8
0
 10
-766.0444431189781653
 20
-642.7876096865388718
 30
0.0
 11
-707.1067811865475505
 21
-707.1067811865470958
 31
0.0
  0
LINE
  5
3C4
  8
0
 10
-707.1067811865475505
 20
-707.1067811865470958
 30
0.0
 11
-642.7876096865395539
 21
-766.0444431189777106
 31
0.0
  0
LINE
  5
3C5
  8
0
 10
-642.7876096865395539
 20
-766.0444431189777106
 30
0.0
 11
-573.5764363510463681
 21
-819.1520442889913056
 31
0.0
  0
LINE
  5
3C6
  8
0
 10
-573.5764363510463681
 20
-819.1520442889913056
 30
0.0
 11
-500.0000000000005116
 21
-866.0254037844382538
 31
0.0
  0
LINE
  5
3C7
  8
0
 10
-500.0000000000005116
 20
-866.0254037844382538
 30
0.0
 11
-422.618261740700575
 21
-906.307787036649529
 31
0.0
  0
LINE
  5
3C8
  8
0
 10
-422.618261740700575
 20
-906.307787036649529
 30
0.0
 11
-342.020143325669892
 21
-939.6926207859078204
 31
0.0
  0
LINE
  5
3C9
  8
0
 10
-342.020143325669892
 20
-939.6926207859078204
 30
0.0
 11
-258.819045102522125
 21
-965.925826289067686
 31
0.0
  0
LINE
  5
3CA
  8
0
 10
-258.819045102522125
 20
-965.925826289067686
 30
0.0
 11
-173.6481776669317014
 21
-984.8077530122077405
 31
0.0
  0
LINE
  5
3CB
  8
0
 10
-173.6481776669317014
 20
-984.8077530122077405
 30
0.0
 11
-87.1557427476594739
 21
-996.1946980917450674
 31
0.0
  0
LINE
  5
3CC
  8
0
 10
-87.1557427476594739
 20
-996.1946980917450674
 30
0.0
 11
-0.0000000000014211
 21
-999.9999999999997726
 31
0.0
  0
LINE
  5
3CD
  8
0
 10
-0.0000000000014211
 20
-999.9999999999997726
 30
0.0
 11
87.1557427476562054
 21
-996.1946980917457495
 31
0.0
  0
LINE
  5
3CE
  8
0
 10
87.1557427476562054
 20
-996.1946980917457495
 30
0.0
 11
173.6481776669284045
 21
-984.807753012208309
 31
0.0
  0
LINE
  5
3CF
  8
0
 10
173.6481776669284045
 20
-984.807753012208309
 30
0.0
 11
258.8190451025188281
 21
-965.9258262890685955
 31
0.0
  0
LINE
  5
3D0
  8
0
 10
258.8190451025188281
 20
-965.9258262890685955
 30
0.0
 11
342.0201433256668224
 21
-939.6926207859089573
 31
0.0
  0
LINE
  5
3D1
  8
0
 10
342.0201433256668224
 20
-939.6926207859089573
 30
0.0
 11
422.6182617406975055
 21
-906.3077870366506659
 31
0.0
  0
LINE
  5
3D2
  8
0
 10
422.6182617406975055
 20
-906.3077870366506659
 30
0.0
 11
499.999999999998181
 21
-866.025403784439618
 31
0.0
  0
LINE
  5
3D3
  8
0
 10
499.999999999998181
 20
-866.025403784439618
 30
0.0
 11
573.5764363510444355
 21
-819.1520442889928972
 31
0.0
  0
LINE
  5
3D4
  8
0
 10
573.5764363510444355
 20
-819.1520442889928972
 30
0.0
 11
642.7876096865377349
 21
-766.0444431189793022
 31
0.0
  0
LINE
  5
3D5
  8
0
 10
642.7876096865377349
 20
-766.0444431189793022
 30
0.0
 11
707.1067811865460726
 21
-707.1067811865489148
 31
0.0
  0
LINE
  5
3D6
  8
0
 10
707.1067811865460726
 20
-707.1067811865489148
 30
0.0
 11
766.0444431189765737
 21
-642.7876096865409181
 31
0.0
  0
LINE
  5
3D7
  8
0
 10
766.0444431189765737
 20
-642.7876096865409181
 30
0.0
 11
819.1520442889903961
 21
-573.5764363510477324
 31
0.0
  0
LINE
  5
3D8
  8
0
 10
819.1520442889903961
 20
-573.5764363510477324
 30
0.0
 11
866.0254037844373443
 21
-500.000000000001819
 31
0.0
  0
LINE
  5
3D9
  8
0
 10
866.0254037844373443
 20
-500.000000000001819
 30
0.0
 11
906.3077870366490743
 21
-422.618261740701314
 31
0.0
  0
LINE
  5
3DA
  8
0
 10
906.3077870366490743
 20
-422.618261740701314
 30
0.0
 11
939.692620785907593
 21
-342.0201433256706878
 31
0.0
  0
LINE
  5
3DB
  8
0
 10
939.692620785907593
 20
-342.0201433256706878
 30
0.0
 11
965.925826289067686
 21
-258.8190451025228072
 31
0.0
  0
LINE
  5
3DC
  8
0
 10
965.925826289067686
 20
-258.8190451025228072
 30
0.0
 11
984.8077530122075132
 21
-173.6481776669324972
 31
0.0
  0
LINE
  5
3DD
  8
0
 10
984.8077530122075132
 20
-173.6481776669324972
 30
0.0
 11
996.1946980917452947
 21
-87.155742747660284
 31
0.0
  0
LINE
  5
3DE
  8
0
 10
996.1946980917452947
 20
-87.155742747660284
 30
0.0
 11
1000.0
 21
0.0
 31
0.0
  0
ENDSEC
  0
EOF
