  0
SECTION
  2
HEADER
  9
$ACADVER
  1
AC1009
  9
$INSBASE
 10
0.0
 20
0.0
 30
0.0
  9
$EXTMIN
 10
1182.0713430784599041
 20
536.5488473211429437
 30
0.0
  9
$EXTMAX
 10
3539.268814831274085
 20
2893.7463190739617858
 30
0.0
  9
$LIMMIN
 10
0.0
 20
0.0
  9
$LIMMAX
 10
420.0
 20
297.0
  9
$ORTHOMODE
 70
     0
  9
$REGENMODE
 70
     1
  9
$FILLMODE
 70
     1
  9
$QTEXTMODE
 70
     0
  9
$MIRRTEXT
 70
     0
  9
$DRAGMODE
 70
     2
  9
$LTSCALE
 40
1.0
  9
$OSMODE
 70
   545
  9
$ATTMODE
 70
     1
  9
$TEXTSIZE
 40
2.5
  9
$TRACEWID
 40
1.0
  9
$TEXTSTYLE
  7
STANDARD
  9
$CLAYER
  8
0
  9
$CELTYPE
  6
BYLAYER
  9
$CECOLOR
 62
   256
  9
$DIMSCALE
 40
1.0
  9
$DIMASZ
 40
2.5
  9
$DIMEXO
 40
0.625
  9
$DIMDLI
 40
3.75
  9
$DIMRND
 40
0.0
  9
$DIMDLE
 40
0.0
  9
$DIMEXE
 40
1.25
  9
$DIMTP
 40
0.0
  9
$DIMTM
 40
0.0
  9
$DIMTXT
 40
2.5
  9
$DIMCEN
 40
2.5
  9
$DIMTSZ
 40
0.0
  9
$DIMTOL
 70
     0
  9
$DIMLIM
 70
     0
  9
$DIMTIH
 70
     0
  9
$DIMTOH
 70
     0
  9
$DIMSE1
 70
     0
  9
$DIMSE2
 70
     0
  9
$DIMTAD
 70
     1
  9
$DIMZIN
 70
     8
  9
$DIMBLK
  1

  9
$DIMASO
 70
     1
  9
$DIMSHO
 70
     1
  9
$DIMPOST
  1

  9
$DIMAPOST
  1

  9
$DIMALT
 70
     0
  9
$DIMALTD
 70
     3
  9
$DIMALTF
 40
0.03937007874016
  9
$DIMLFAC
 40
1.0
  9
$DIMTOFL
 70
     1
  9
$DIMTVP
 40
0.0
  9
$DIMTIX
 70
     0
  9
$DIMSOXD
 70
     0
  9
$DIMSAH
 70
     0
  9
$DIMBLK1
  1

  9
$DIMBLK2
  1

  9
$DIMSTYLE
  2
ISO-25
  9
$DIMCLRD
 70
     0
  9
$DIMCLRE
 70
     0
  9
$DIMCLRT
 70
     0
  9
$DIMTFAC
 40
1.0
  9
$DIMGAP
 40
0.625
  9
$LUNITS
 70
     2
  9
$LUPREC
 70
     4
  9
$SKETCHINC
 40
1.0
  9
$FILLETRAD
 40
0.0
  9
$AUNITS
 70
     0
  9
$AUPREC
 70
     0
  9
$MENU
  1
.
  9
$ELEVATION
 40
0.0
  9
$PELEVATION
 40
0.0
  9
$THICKNESS
 40
0.0
  9
$LIMCHECK
 70
     0
  9
$BLIPMODE
 70
     0
  9
$CHAMFERA
 40
0.0
  9
$CHAMFERB
 40
0.0
  9
$SKPOLY
 70
     0
  9
$TDCREATE
 40
2460397.0033101849257946
  9
$TDUPDATE
 40
2460397.0960416668094695
  9
$TDINDWG
 40
0.0874537037
  9
$TDUSRTIMER
 40
0.0874537037
  9
$USRTIMER
 70
     1
  9
$ANGBASE
 50
0.0
  9
$ANGDIR
 70
     0
  9
$PDMODE
 70
     0
  9
$PDSIZE
 40
0.0
  9
$PLINEWID
 40
0.0
  9
$COORDS
 70
     1
  9
$SPLFRAME
 70
     0
  9
$SPLINETYPE
 70
     6
  9
$SPLINESEGS
 70
     8
  9
$ATTDIA
 70
     1
  9
$ATTREQ
 70
     1
  9
$HANDLING
 70
     1
  9
$HANDSEED
  5
928
  9
$SURFTAB1
 70
     6
  9
$SURFTAB2
 70
     6
  9
$SURFTYPE
 70
     6
  9
$SURFU
 70
     6
  9
$SURFV
 70
     6
  9
$UCSNAME
  2

  9
$UCSORG
 10
0.0
 20
0.0
 30
0.0
  9
$UCSXDIR
 10
1.0
 20
0.0
 30
0.0
  9
$UCSYDIR
 10
0.0
 20
1.0
 30
0.0
  9
$PUCSNAME
  2

  9
$PUCSORG
 10
0.0
 20
0.0
 30
0.0
  9
$PUCSXDIR
 10
1.0
 20
0.0
 30
0.0
  9
$PUCSYDIR
 10
0.0
 20
1.0
 30
0.0
  9
$USERI1
 70
     0
  9
$USERI2
 70
     0
  9
$USERI3
 70
     0
  9
$USERI4
 70
     0
  9
$USERI5
 70
     0
  9
$USERR1
 40
0.0
  9
$USERR2
 40
0.0
  9
$USERR3
 40
0.0
  9
$USERR4
 40
0.0
  9
$USERR5
 40
0.0
  9
$WORLDVIEW
 70
     1
  9
$SHADEDGE
 70
     3
  9
$SHADEDIF
 70
    70
  9
$TILEMODE
 70
     1
  9
$MAXACTVP
 70
    64
  9
$PLIMCHECK
 70
     0
  9
$PEXTMIN
 10
0.0
 20
0.0
 30
0.0
  9
$PEXTMAX
 10
0.0
 20
0.0
 30
0.0
  9
$PLIMMIN
 10
0.0
 20
0.0
  9
$PLIMMAX
 10
12.0
 20
9.0
  9
$UNITMODE
 70
     0
  9
$VISRETAIN
 70
     1
  9
$PLINEGEN
 70
     0
  9
$PSLTSCALE
 70
     1
  0
ENDSEC
  0
SECTION
  2
TABLES
  0
TABLE
  2
VPORT
 70
     1
  0
VPORT
  2
*ACTIVE
 70
     0
 10
0.0
 20
0.0
 11
1.0
 21
1.0
 12
2106.4092367987491343
 22
1760.154492217438019
 13
0.0
 23
0.0
 14
10.0
 24
10.0
 15
10.0
 25
10.0
 16
0.0
 26
0.0
 36
1.0
 17
0.0
 27
0.0
 37
0.0
 40
3801.5686398292518788
 41
2.6323731138545949
 42
50.0
 43
0.0
 44
0.0
 50
0.0
 51
0.0
 71
     0
 72
  1000
 73
     1
 74
     3
 75
     0
 76
     1
 77
     0
 78
     0
  0
ENDTAB
  0
TABLE
  2
LTYPE
 70
     1
  0
LTYPE
  2
CONTINUOUS
 70
     0
  3
Solid line
 72
    65
 73
     0
 40
0.0
  0
ENDTAB
  0
TABLE
  2
LAYER
 70
     2
  0
LAYER
  2
0
 70
     0
 62
     7
  6
CONTINUOUS
  0
LAYER
  2
DEFPOINTS
 70
     0
 62
     7
  6
CONTINUOUS
  0
ENDTAB
  0
TABLE
  2
STYLE
 70
     2
  0
STYLE
  2
STANDARD
 70
     0
 40
0.0
 41
1.0
 50
0.0
 71
     0
 42
2.5
  3
txt
  4

  0
STYLE
  2
ANNOTATIVE
 70
     0
 40
0.0
 41
1.0
 50
0.0
 71
     0
 42
2.5
  3
txt
  4

  0
ENDTAB
  0
TABLE
  2
VIEW
 70
     0
  0
ENDTAB
  0
TABLE
  2
UCS
 70
     0
  0
ENDTAB
  0
TABLE
  2
APPID
 70
    10
  0
APPID
  2
ACAD
 70
     0
  0
APPID
  2
ACADANNOTATIVE
 70
     0
  0
APPID
  2
ACAD_PSEXT
 70
     0
  0
APPID
  2
ACADANNOPO
 70
     0
  0
APPID
  2
ACAD_DSTYLE_DIMJAG
 70
     0
  0
APPID
  2
ACAD_DSTYLE_DIMTALN
 70
     0
  0
APPID
  2
ACAD_MLEADERVER
 70
     0
  0
APPID
  2
ACAD_NAV_VCDISPLAY
 70
     0
  0
APPID
  2
ACAD_EXEMPT_FROM_CAD_STANDARDS
 70
     0
  0
APPID
  2
ACAD_DSTYLE_DIMRADIAL_EXTENSION
 70
     0
  0
ENDTAB
  0
TABLE
  2
DIMSTYLE
 70
     3
  0
DIMSTYLE
  2
STANDARD
 70
     0
  3

  4

  5

  6

  7

 40
1.0
 41
0.18
 42
0.0625
 43
0.38
 44
0.18
 45
0.0
 46
0.0
 47
0.0
 48
0.0
140
0.18
141
0.09
142
0.0
143
25.3999999999999986
144
1.0
145
0.0
146
1.0
147
0.09
 71
     0
 72
     0
 73
     1
 74
     1
 75
     0
 76
     0
 77
     0
 78
     0
170
     0
171
     2
172
     0
173
     0
174
     0
175
     0
176
     0
177
     0
178
     0
  0
DIMSTYLE
  2
ANNOTATIVE
 70
     0
  3

  4

  5

  6

  7

 40
0.0
 41
2.5
 42
0.625
 43
3.75
 44
1.25
 45
0.0
 46
0.0
 47
0.0
 48
0.0
140
2.5
141
2.5
142
0.0
143
0.03937007874016
144
1.0
145
0.0
146
1.0
147
0.625
 71
     0
 72
     0
 73
     0
 74
     0
 75
     0
 76
     0
 77
     1
 78
     8
170
     0
171
     3
172
     1
173
     0
174
     0
175
     0
176
     0
177
     0
178
     0
  0
DIMSTYLE
  2
ISO-25
 70
     0
  3

  4

  5

  6

  7

 40
1.0
 41
2.5
 42
0.625
 43
3.75
 44
1.25
 45
0.0
 46
0.0
 47
0.0
 48
0.0
140
2.5
141
2.5
142
0.0
143
0.03937007874016
144
1.0
145
0.0
146
1.0
147
0.625
 71
     0
 72
     0
 73
     0
 74
     0
 75
     0
 76
     0
 77
     1
 78
     8
170
     0
171
     3
172
     1
173
     0
174
     0
175
     0
176
     0
177
     0
178
     0
  0
ENDTAB
  0
ENDSEC
  0
SECTION
  2
BLOCKS
  0
BLOCK
  8
0
  2
$MODEL_SPACE
 70
     0
 10
0.0
 20
0.0
 30
0.0
  3
$MODEL_SPACE
  1

  0
ENDBLK
  5
814
  8
0
  0
BLOCK
 67
     1
  8
0
  2
$PAPER_SPACE
 70
     0
 10
0.0
 20
0.0
 30
0.0
  3
$PAPER_SPACE
  1

  0
ENDBLK
  5
810
 67
     1
  8
0
  0
BLOCK
  8
0
  2
*U3
 70
     1
 10
0.0
 20
0.0
 30
0.0
  3
*U3
  1

  0
TEXT
  5
46F
  8
0
 62
     0
 10
2531.0650359765340909
 20
2814.1568157150541083
 30
0.0
 40
2.5
  1
206,23
 50
290.0
  0
ENDBLK
  5
471
  8
0
  0
BLOCK
  8
0
  2
*U5
 70
     1
 10
0.0
 20
0.0
 30
0.0
  3
*U5
  1

  0
TEXT
  5
473
  8
0
 62
     0
 10
2386.008592138466156
 20
2813.4493708139489172
 30
0.0
 40
2.5
  1
206,23
 50
59.9999999999998366
  0
ENDBLK
  5
475
  8
0
  0
BLOCK
  8
0
  2
*U7
 70
     1
 10
0.0
 20
0.0
 30
0.0
  3
*U7
  1

  0
TEXT
  5
477
  8
0
 62
     0
 10
2437.3932463628798359
 20
2688.1095258629329692
 30
0.0
 40
2.5
  1
174.31149
 50
354.9999999999997158
  0
ENDBLK
  5
479
  8
0
  0
BLOCK
  8
0
  2
*U9
 70
     1
 10
0.0
 20
0.0
 30
0.0
  3
*U9
  1

  0
TEXT
  5
47B
  8
0
 62
     0
 10
2267.0882758635011669
 20
2688.7803607602818374
 30
0.0
 40
2.5
  1
174.31149
 50
4.9999999999998899
  0
ENDBLK
  5
47D
  8
0
  0
BLOCK
  8
0
  2
*U11
 70
     1
 10
0.0
 20
0.0
 30
0.0
  3
*U11
  1

  0
TEXT
  5
47F
  8
0
 62
     0
 10
2604.6044935818490558
 20
2657.8547131840568909
 30
0.0
 40
2.5
  1
174.31149
 50
345.0000000000001137
  0
ENDBLK
  5
481
  8
0
  0
BLOCK
  8
0
  2
*U13
 70
     1
 10
0.0
 20
0.0
 30
0.0
  3
*U13
  1

  0
TEXT
  5
483
  8
0
 62
     0
 10
2404.9205666853840739
 20
2759.2183796874460313
 30
0.0
 40
2.5
  1
95°
 50
312.5
  0
ENDBLK
  5
485
  8
0
  0
ENDSEC
  0
SECTION
  2
ENTITIES
  0
POLYLINE
  5
385
  8
0
 66
     1
 10
0.0
 20
0.0
 30
0.0
  0
VERTEX
  5
858
  8
0
 10
1182.0713430784599041
 20
1818.2616114327220203
 30
0.0
  0
VERTEX
  5
859
  8
0
 10
1360.6700789548669945
 20
1715.1475831975519668
 30
0.0
  0
VERTEX
  5
85A
  8
0
 10
1182.0713430784599041
 20
1612.0335549623810039
 30
0.0
  0
SEQEND
  5
85B
  8
0
  0
POLYLINE
  5
38A
  8
0
 66
     1
 10
0.0
 20
0.0
 30
0.0
  0
VERTEX
  5
85C
  8
0
 10
1217.8824692683260764
 20
1408.9385660617510894
 30
0.0
  0
VERTEX
  5
85D
  8
0
 10
1375.8623259426590266
 20
1541.4994055306210612
 30
0.0
  0
VERTEX
  5
85E
  8
0
 10
1182.0713430784599041
 20
1612.0335549623819134
 30
0.0
  0
SEQEND
  5
85F
  8
0
  0
POLYLINE
  5
38C
  8
0
 66
     1
 10
0.0
 20
0.0
 30
0.0
  0
VERTEX
  5
860
  8
0
 10
1288.4166187000869286
 20
1215.1475831975519668
 30
0.0
  0
VERTEX
  5
861
  8
0
 10
1420.9774581689580373
 20
1373.127439871883098
 30
0.0
  0
VERTEX
  5
862
  8
0
 10
1217.8824692683278954
 20
1408.9385660617510894
 30
0.0
  0
SEQEND
  5
863
  8
0
  0
POLYLINE
  5
38E
  8
0
 66
     1
 10
0.0
 20
0.0
 30
0.0
  0
VERTEX
  5
864
  8
0
 10
1391.5306469352590284
 20
1036.5488473211469227
 30
0.0
  0
VERTEX
  5
865
  8
0
 10
1494.644675170427945
 20
1215.1475831975519668
 30
0.0
  0
VERTEX
  5
866
  8
0
 10
1288.4166187000869286
 20
1215.1475831975519668
 30
0.0
  0
SEQEND
  5
867
  8
0
  0
POLYLINE
  5
390
  8
0
 66
     1
 10
0.0
 20
0.0
 30
0.0
  0
VERTEX
  5
868
  8
0
 10
1524.0914864041269539
 20
878.5689906468137451
 30
0.0
  0
VERTEX
  5
869
  8
0
 10
1594.6256358358880334
 20
1072.3599735110140045
 30
0.0
  0
VERTEX
  5
86A
  8
0
 10
1391.5306469352590284
 20
1036.5488473211469227
 30
0.0
  0
SEQEND
  5
86B
  8
0
  0
POLYLINE
  5
392
  8
0
 66
     1
 10
0.0
 20
0.0
 30
0.0
  0
VERTEX
  5
86C
  8
0
 10
1682.0713430784610409
 20
746.0081511779452512
 30
0.0
  0
VERTEX
  5
86D
  8
0
 10
1717.8824692683278954
 20
949.1031400785749383
 30
0.0
  0
VERTEX
  5
86E
  8
0
 10
1524.0914864041269539
 20
878.5689906468141999
 30
0.0
  0
SEQEND
  5
86F
  8
0
  0
POLYLINE
  5
394
  8
0
 66
     1
 10
0.0
 20
0.0
 30
0.0
  0
VERTEX
  5
870
  8
0
 10
1860.670078954866085
 20
642.8941229427730377
 30
0.0
  0
VERTEX
  5
871
  8
0
 10
1860.670078954866085
 20
849.1221794131138267
 30
0.0
  0
VERTEX
  5
872
  8
0
 10
1682.0713430784610409
 20
746.0081511779450238
 30
0.0
  0
SEQEND
  5
873
  8
0
  0
POLYLINE
  5
396
  8
0
 66
     1
 10
0.0
 20
0.0
 30
0.0
  0
VERTEX
  5
874
  8
0
 10
2054.4610618190631612
 20
572.359973511012754
 30
0.0
  0
VERTEX
  5
875
  8
0
 10
2018.6499356291969889
 20
775.4549624116433506
 30
0.0
  0
VERTEX
  5
876
  8
0
 10
1860.670078954866085
 20
642.8941229427731514
 30
0.0
  0
SEQEND
  5
877
  8
0
  0
POLYLINE
  5
397
  8
0
 66
     1
 10
0.0
 20
0.0
 30
0.0
  0
VERTEX
  5
878
  8
0
 10
2257.5560507196960316
 20
536.5488473211438532
 30
0.0
  0
VERTEX
  5
879
  8
0
 10
2360.6700789548672219
 20
715.1475831975519668
 30
0.0
  0
VERTEX
  5
87A
  8
0
 10
2463.784107190038867
 20
536.5488473211435121
 30
0.0
  0
SEQEND
  5
87B
  8
0
  0
POLYLINE
  5
398
  8
0
 66
     1
 10
0.0
 20
0.0
 30
0.0
  0
VERTEX
  5
87C
  8
0
 10
2257.5560507196951221
 20
536.5488473211429437
 30
0.0
  0
VERTEX
  5
87D
  8
0
 10
2187.0219012879360889
 20
730.3398301853439989
 30
0.0
  0
VERTEX
  5
87E
  8
0
 10
2054.4610618190631612
 20
572.359973511012754
 30
0.0
  0
SEQEND
  5
87F
  8
0
  0
POLYLINE
  5
399
  8
0
 66
     1
 10
0.0
 20
0.0
 30
0.0
  0
VERTEX
  5
880
  8
0
 10
2463.784107190038867
 20
536.5488473211429437
 30
0.0
  0
VERTEX
  5
881
  8
0
 10
2534.3182566217988096
 20
730.3398301853439989
 30
0.0
  0
VERTEX
  5
882
  8
0
 10
2666.8790960906690088
 20
572.359973511012754
 30
0.0
  0
SEQEND
  5
883
  8
0
  0
POLYLINE
  5
39B
  8
0
 66
     1
 10
0.0
 20
0.0
 30
0.0
  0
VERTEX
  5
884
  8
0
 10
2666.8790960906690088
 20
572.359973511012754
 30
0.0
  0
VERTEX
  5
885
  8
0
 10
2702.6902222805379097
 20
775.4549624116433506
 30
0.0
  0
VERTEX
  5
886
  8
0
 10
2860.6700789548681314
 20
642.8941229427731514
 30
0.0
  0
SEQEND
  5
887
  8
0
  0
POLYLINE
  5
39D
  8
0
 66
     1
 10
0.0
 20
0.0
 30
0.0
  0
VERTEX
  5
888
  8
0
 10
2860.6700789548681314
 20
642.8941229427730377
 30
0.0
  0
VERTEX
  5
889
  8
0
 10
2860.6700789548681314
 20
849.1221794131138267
 30
0.0
  0
VERTEX
  5
88A
  8
0
 10
3039.2688148312731755
 20
746.0081511779444554
 30
0.0
  0
SEQEND
  5
88B
  8
0
  0
POLYLINE
  5
39F
  8
0
 66
     1
 10
0.0
 20
0.0
 30
0.0
  0
VERTEX
  5
88C
  8
0
 10
3039.2688148312731755
 20
746.0081511779451375
 30
0.0
  0
VERTEX
  5
88D
  8
0
 10
3003.4576886414060937
 20
949.1031400785749383
 30
0.0
  0
VERTEX
  5
88E
  8
0
 10
3197.2486715056070352
 20
878.5689906468141999
 30
0.0
  0
SEQEND
  5
88F
  8
0
  0
POLYLINE
  5
3A1
  8
0
 66
     1
 10
0.0
 20
0.0
 30
0.0
  0
VERTEX
  5
890
  8
0
 10
3197.2486715056070352
 20
878.5689906468137451
 30
0.0
  0
VERTEX
  5
891
  8
0
 10
3126.714522073846183
 20
1072.3599735110140045
 30
0.0
  0
VERTEX
  5
892
  8
0
 10
3329.8095109744740512
 20
1036.5488473211469227
 30
0.0
  0
SEQEND
  5
893
  8
0
  0
POLYLINE
  5
3A3
  8
0
 66
     1
 10
0.0
 20
0.0
 30
0.0
  0
VERTEX
  5
894
  8
0
 10
3329.8095109744740512
 20
1036.5488473211480596
 30
0.0
  0
VERTEX
  5
895
  8
0
 10
3226.6954827393051346
 20
1215.1475831975519668
 30
0.0
  0
VERTEX
  5
896
  8
0
 10
3432.923539209646151
 20
1215.1475831975519668
 30
0.0
  0
SEQEND
  5
897
  8
0
  0
POLYLINE
  5
3A5
  8
0
 66
     1
 10
0.0
 20
0.0
 30
0.0
  0
VERTEX
  5
898
  8
0
 10
3432.923539209646151
 20
1215.1475831975519668
 30
0.0
  0
VERTEX
  5
899
  8
0
 10
3300.3626997407750423
 20
1373.127439871883098
 30
0.0
  0
VERTEX
  5
89A
  8
0
 10
3503.4576886414070032
 20
1408.9385660617510894
 30
0.0
  0
SEQEND
  5
89B
  8
0
  0
POLYLINE
  5
3A7
  8
0
 66
     1
 10
0.0
 20
0.0
 30
0.0
  0
VERTEX
  5
89C
  8
0
 10
3503.4576886414070032
 20
1408.9385660617510894
 30
0.0
  0
VERTEX
  5
89D
  8
0
 10
3345.4778319670749624
 20
1541.4994055306210612
 30
0.0
  0
VERTEX
  5
89E
  8
0
 10
3539.2688148312731755
 20
1612.0335549623810039
 30
0.0
  0
SEQEND
  5
89F
  8
0
  0
POLYLINE
  5
3AC
  8
0
 66
     1
 10
0.0
 20
0.0
 30
0.0
  0
VERTEX
  5
8A0
  8
0
 10
3539.268814831274085
 20
1818.2616114327220203
 30
0.0
  0
VERTEX
  5
8A1
  8
0
 10
3360.6700789548658577
 20
1715.1475831975519668
 30
0.0
  0
VERTEX
  5
8A2
  8
0
 10
3539.268814831274085
 20
1612.0335549623810039
 30
0.0
  0
SEQEND
  5
8A3
  8
0
  0
LINE
  5
3DB
  8
0
 10
3360.6700789548658577
 20
1715.1475831975519668
 30
0.0
 11
3345.4778319670749624
 21
1541.4994055306210612
 31
0.0
  0
LINE
  5
3DC
  8
0
 10
3345.4778319670749624
 20
1541.4994055306210612
 30
0.0
 11
3300.3626997407750423
 21
1373.127439871883098
 31
0.0
  0
LINE
  5
3DD
  8
0
 10
3300.3626997407750423
 20
1373.127439871883098
 30
0.0
 11
3226.6954827393051346
 21
1215.1475831975519668
 31
0.0
  0
LINE
  5
3DE
  8
0
 10
3226.6954827393051346
 20
1215.1475831975519668
 30
0.0
 11
3126.714522073846183
 21
1072.3599735110140045
 31
0.0
  0
LINE
  5
3DF
  8
0
 10
3126.714522073846183
 20
1072.3599735110140045
 30
0.0
 11
3003.4576886414060937
 21
949.1031400785749383
 31
0.0
  0
LINE
  5
3E0
  8
0
 10
3003.4576886414060937
 20
949.1031400785749383
 30
0.0
 11
2860.6700789548681314
 21
849.1221794131138267
 31
0.0
  0
LINE
  5
3E1
  8
0
 10
2860.6700789548681314
 20
849.1221794131138267
 30
0.0
 11
2702.6902222805379097
 21
775.4549624116433506
 31
0.0
  0
LINE
  5
3E2
  8
0
 10
2702.6902222805379097
 20
775.4549624116433506
 30
0.0
 11
2534.3182566217988096
 21
730.3398301853439989
 31
0.0
  0
LINE
  5
3E3
  8
0
 10
2534.3182566217988096
 20
730.3398301853439989
 30
0.0
 11
2360.6700789548672219
 21
715.1475831975519668
 31
0.0
  0
LINE
  5
3E4
  8
0
 10
2360.6700789548672219
 20
715.1475831975519668
 30
0.0
 11
2187.0219012879360889
 21
730.3398301853439989
 31
0.0
  0
LINE
  5
3E5
  8
0
 10
2187.0219012879360889
 20
730.3398301853439989
 30
0.0
 11
2018.6499356291969889
 21
775.4549624116433506
 31
0.0
  0
LINE
  5
3E6
  8
0
 10
2018.6499356291969889
 20
775.4549624116433506
 30
0.0
 11
1860.670078954866085
 21
849.1221794131138267
 31
0.0
  0
LINE
  5
3E7
  8
0
 10
1860.670078954866085
 20
849.1221794131138267
 30
0.0
 11
1717.8824692683278954
 21
949.1031400785749383
 31
0.0
  0
LINE
  5
3E8
  8
0
 10
1717.8824692683278954
 20
949.1031400785749383
 30
0.0
 11
1594.6256358358880334
 21
1072.3599735110140045
 31
0.0
  0
LINE
  5
3E9
  8
0
 10
1594.6256358358880334
 20
1072.3599735110140045
 30
0.0
 11
1494.644675170427945
 21
1215.1475831975519668
 31
0.0
  0
LINE
  5
3EA
  8
0
 10
1494.644675170427945
 20
1215.1475831975519668
 30
0.0
 11
1420.9774581689580373
 21
1373.127439871883098
 31
0.0
  0
LINE
  5
3EB
  8
0
 10
1420.9774581689580373
 20
1373.127439871883098
 30
0.0
 11
1375.8623259426590266
 21
1541.4994055306210612
 31
0.0
  0
LINE
  5
3EC
  8
0
 10
1375.8623259426590266
 20
1541.4994055306210612
 30
0.0
 11
1360.6700789548669945
 21
1715.1475831975519668
 31
0.0
  0
LINE
  5
401
  8
0
 10
3539.268814831274085
 20
1818.2616114327220203
 30
0.0
 11
3539.268814831274085
 21
1612.0335549623810039
 31
0.0
  0
LINE
  5
402
  8
0
 10
3539.268814831274085
 20
1612.0335549623810039
 30
0.0
 11
3503.4576886414070032
 21
1408.9385660617510894
 31
0.0
  0
LINE
  5
403
  8
0
 10
3503.4576886414070032
 20
1408.9385660617510894
 30
0.0
 11
3432.923539209646151
 21
1215.1475831975519668
 31
0.0
  0
LINE
  5
404
  8
0
 10
3432.923539209646151
 20
1215.1475831975519668
 30
0.0
 11
3329.8095109744740512
 21
1036.5488473211480596
 31
0.0
  0
LINE
  5
405
  8
0
 10
3329.8095109744740512
 20
1036.5488473211480596
 30
0.0
 11
3197.2486715056070352
 21
878.5689906468137451
 31
0.0
  0
LINE
  5
406
  8
0
 10
3197.2486715056070352
 20
878.5689906468137451
 30
0.0
 11
3039.2688148312731755
 21
746.0081511779444554
 31
0.0
  0
LINE
  5
407
  8
0
 10
3039.2688148312731755
 20
746.0081511779444554
 30
0.0
 11
2860.6700789548681314
 21
642.8941229427730377
 31
0.0
  0
LINE
  5
408
  8
0
 10
2860.6700789548681314
 20
642.8941229427730377
 30
0.0
 11
2666.8790960906690088
 21
572.359973511012754
 31
0.0
  0
LINE
  5
409
  8
0
 10
2666.8790960906690088
 20
572.359973511012754
 30
0.0
 11
2463.784107190038867
 21
536.5488473211429437
 31
0.0
  0
LINE
  5
40A
  8
0
 10
2463.784107190038867
 20
536.5488473211429437
 30
0.0
 11
2257.5560507196951221
 21
536.5488473211429437
 31
0.0
  0
LINE
  5
40B
  8
0
 10
2257.5560507196951221
 20
536.5488473211429437
 30
0.0
 11
2054.4610618190631612
 21
572.359973511012754
 31
0.0
  0
LINE
  5
40C
  8
0
 10
2054.4610618190631612
 20
572.359973511012754
 30
0.0
 11
1860.670078954866085
 21
642.8941229427731514
 31
0.0
  0
LINE
  5
40D
  8
0
 10
1860.670078954866085
 20
642.8941229427731514
 30
0.0
 11
1682.0713430784610409
 21
746.0081511779450238
 31
0.0
  0
LINE
  5
40E
  8
0
 10
1682.0713430784610409
 20
746.0081511779450238
 30
0.0
 11
1524.0914864041269539
 21
878.5689906468141999
 31
0.0
  0
LINE
  5
40F
  8
0
 10
1524.0914864041269539
 20
878.5689906468141999
 30
0.0
 11
1391.5306469352590284
 21
1036.5488473211469227
 31
0.0
  0
LINE
  5
410
  8
0
 10
1391.5306469352590284
 20
1036.5488473211469227
 30
0.0
 11
1288.4166187000869286
 21
1215.1475831975519668
 31
0.0
  0
LINE
  5
411
  8
0
 10
1288.4166187000869286
 20
1215.1475831975519668
 30
0.0
 11
1217.8824692683278954
 21
1408.9385660617510894
 31
0.0
  0
LINE
  5
412
  8
0
 10
1217.8824692683278954
 20
1408.9385660617510894
 30
0.0
 11
1182.0713430784599041
 21
1612.0335549623819134
 31
0.0
  0
LINE
  5
413
  8
0
 10
1182.0713430784599041
 20
1612.0335549623819134
 30
0.0
 11
1182.0713430784599041
 21
1818.2616114327220203
 31
0.0
  0
POLYLINE
  5
699
  8
0
 66
     1
 10
0.0
 20
0.0
 30
0.0
  0
VERTEX
  5
8A4
  8
0
 10
1217.8824692683260764
 20
2021.3566003333530716
 30
0.0
  0
VERTEX
  5
8A5
  8
0
 10
1375.8623259426590266
 20
1888.7957608644830998
 30
0.0
  0
VERTEX
  5
8A6
  8
0
 10
1182.0713430784599041
 20
1818.2616114327220203
 30
0.0
  0
SEQEND
  5
8A7
  8
0
  0
POLYLINE
  5
69A
  8
0
 66
     1
 10
0.0
 20
0.0
 30
0.0
  0
VERTEX
  5
8A8
  8
0
 10
1288.4166187000869286
 20
2215.1475831975521942
 30
0.0
  0
VERTEX
  5
8A9
  8
0
 10
1420.9774581689580373
 20
2057.167726523221063
 30
0.0
  0
VERTEX
  5
8AA
  8
0
 10
1217.8824692683278954
 20
2021.3566003333530716
 30
0.0
  0
SEQEND
  5
8AB
  8
0
  0
POLYLINE
  5
69B
  8
0
 66
     1
 10
0.0
 20
0.0
 30
0.0
  0
VERTEX
  5
8AC
  8
0
 10
1391.5306469352590284
 20
2393.7463190739581478
 30
0.0
  0
VERTEX
  5
8AD
  8
0
 10
1494.644675170427945
 20
2215.1475831975521942
 30
0.0
  0
VERTEX
  5
8AE
  8
0
 10
1288.4166187000869286
 20
2215.1475831975521942
 30
0.0
  0
SEQEND
  5
8AF
  8
0
  0
POLYLINE
  5
69C
  8
0
 66
     1
 10
0.0
 20
0.0
 30
0.0
  0
VERTEX
  5
8B0
  8
0
 10
1524.0914864041269539
 20
2551.726175748291098
 30
0.0
  0
VERTEX
  5
8B1
  8
0
 10
1594.6256358358880334
 20
2357.9351928840901564
 30
0.0
  0
VERTEX
  5
8B2
  8
0
 10
1391.5306469352590284
 20
2393.7463190739581478
 30
0.0
  0
SEQEND
  5
8B3
  8
0
  0
POLYLINE
  5
69D
  8
0
 66
     1
 10
0.0
 20
0.0
 30
0.0
  0
VERTEX
  5
8B4
  8
0
 10
1682.0713430784610409
 20
2684.2870152171599329
 30
0.0
  0
VERTEX
  5
8B5
  8
0
 10
1717.8824692683278954
 20
2481.1920263165288816
 30
0.0
  0
VERTEX
  5
8B6
  8
0
 10
1524.0914864041269539
 20
2551.7261757482901885
 30
0.0
  0
SEQEND
  5
8B7
  8
0
  0
POLYLINE
  5
69E
  8
0
 66
     1
 10
0.0
 20
0.0
 30
0.0
  0
VERTEX
  5
8B8
  8
0
 10
1860.670078954866085
 20
2787.4010434523320328
 30
0.0
  0
VERTEX
  5
8B9
  8
0
 10
1860.670078954866085
 20
2581.1729869819901069
 30
0.0
  0
VERTEX
  5
8BA
  8
0
 10
1682.0713430784610409
 20
2684.2870152171599329
 30
0.0
  0
SEQEND
  5
8BB
  8
0
  0
POLYLINE
  5
69F
  8
0
 66
     1
 10
0.0
 20
0.0
 30
0.0
  0
VERTEX
  5
8BC
  8
0
 10
2054.4610618190631612
 20
2857.9351928840919754
 30
0.0
  0
VERTEX
  5
8BD
  8
0
 10
2018.6499356291969889
 20
2654.8402039834609241
 30
0.0
  0
VERTEX
  5
8BE
  8
0
 10
1860.670078954866085
 20
2787.4010434523311233
 30
0.0
  0
SEQEND
  5
8BF
  8
0
  0
POLYLINE
  5
6A0
  8
0
 66
     1
 10
0.0
 20
0.0
 30
0.0
  0
VERTEX
  5
8C0
  8
0
 10
2257.5560507196960316
 20
2893.7463190739608763
 30
0.0
  0
VERTEX
  5
8C1
  8
0
 10
2360.6700789548672219
 20
2715.1475831975521942
 30
0.0
  0
VERTEX
  5
8C2
  8
0
 10
2463.784107190038867
 20
2893.7463190739608763
 30
0.0
  0
SEQEND
  5
8C3
  8
0
  0
POLYLINE
  5
6A1
  8
0
 66
     1
 10
0.0
 20
0.0
 30
0.0
  0
VERTEX
  5
8C4
  8
0
 10
2257.5560507196951221
 20
2893.7463190739617858
 30
0.0
  0
VERTEX
  5
8C5
  8
0
 10
2187.0219012879360889
 20
2699.9553362097608442
 30
0.0
  0
VERTEX
  5
8C6
  8
0
 10
2054.4610618190631612
 20
2857.9351928840919754
 30
0.0
  0
SEQEND
  5
8C7
  8
0
  0
POLYLINE
  5
6A2
  8
0
 66
     1
 10
0.0
 20
0.0
 30
0.0
  0
VERTEX
  5
8C8
  8
0
 10
2463.784107190038867
 20
2893.7463190739617858
 30
0.0
  0
VERTEX
  5
8C9
  8
0
 10
2534.3182566217988096
 20
2699.9553362097608442
 30
0.0
  0
VERTEX
  5
8CA
  8
0
 10
2666.8790960906690088
 20
2857.9351928840919754
 30
0.0
  0
SEQEND
  5
8CB
  8
0
  0
POLYLINE
  5
6A3
  8
0
 66
     1
 10
0.0
 20
0.0
 30
0.0
  0
VERTEX
  5
8CC
  8
0
 10
2666.8790960906690088
 20
2857.9351928840919754
 30
0.0
  0
VERTEX
  5
8CD
  8
0
 10
2702.6902222805379097
 20
2654.8402039834609241
 30
0.0
  0
VERTEX
  5
8CE
  8
0
 10
2860.6700789548681314
 20
2787.4010434523311233
 30
0.0
  0
SEQEND
  5
8CF
  8
0
  0
POLYLINE
  5
6A4
  8
0
 66
     1
 10
0.0
 20
0.0
 30
0.0
  0
VERTEX
  5
8D0
  8
0
 10
2860.6700789548681314
 20
2787.4010434523320328
 30
0.0
  0
VERTEX
  5
8D1
  8
0
 10
2860.6700789548681314
 20
2581.1729869819901069
 30
0.0
  0
VERTEX
  5
8D2
  8
0
 10
3039.2688148312731755
 20
2684.2870152171599329
 30
0.0
  0
SEQEND
  5
8D3
  8
0
  0
POLYLINE
  5
6A5
  8
0
 66
     1
 10
0.0
 20
0.0
 30
0.0
  0
VERTEX
  5
8D4
  8
0
 10
3039.2688148312731755
 20
2684.2870152171599329
 30
0.0
  0
VERTEX
  5
8D5
  8
0
 10
3003.4576886414060937
 20
2481.1920263165288816
 30
0.0
  0
VERTEX
  5
8D6
  8
0
 10
3197.2486715056070352
 20
2551.7261757482901885
 30
0.0
  0
SEQEND
  5
8D7
  8
0
  0
POLYLINE
  5
6A6
  8
0
 66
     1
 10
0.0
 20
0.0
 30
0.0
  0
VERTEX
  5
8D8
  8
0
 10
3197.2486715056070352
 20
2551.726175748291098
 30
0.0
  0
VERTEX
  5
8D9
  8
0
 10
3126.714522073846183
 20
2357.9351928840901564
 30
0.0
  0
VERTEX
  5
8DA
  8
0
 10
3329.8095109744740512
 20
2393.7463190739581478
 30
0.0
  0
SEQEND
  5
8DB
  8
0
  0
POLYLINE
  5
6A7
  8
0
 66
     1
 10
0.0
 20
0.0
 30
0.0
  0
VERTEX
  5
8DC
  8
0
 10
3329.8095109744740512
 20
2393.746319073955874
 30
0.0
  0
VERTEX
  5
8DD
  8
0
 10
3226.6954827393051346
 20
2215.1475831975521942
 30
0.0
  0
VERTEX
  5
8DE
  8
0
 10
3432.923539209646151
 20
2215.1475831975521942
 30
0.0
  0
SEQEND
  5
8DF
  8
0
  0
POLYLINE
  5
6A8
  8
0
 66
     1
 10
0.0
 20
0.0
 30
0.0
  0
VERTEX
  5
8E0
  8
0
 10
3432.923539209646151
 20
2215.1475831975521942
 30
0.0
  0
VERTEX
  5
8E1
  8
0
 10
3300.3626997407750423
 20
2057.167726523221063
 30
0.0
  0
VERTEX
  5
8E2
  8
0
 10
3503.4576886414070032
 20
2021.3566003333530716
 30
0.0
  0
SEQEND
  5
8E3
  8
0
  0
POLYLINE
  5
6A9
  8
0
 66
     1
 10
0.0
 20
0.0
 30
0.0
  0
VERTEX
  5
8E4
  8
0
 10
3503.4576886414070032
 20
2021.3566003333530716
 30
0.0
  0
VERTEX
  5
8E5
  8
0
 10
3345.4778319670749624
 20
1888.7957608644830998
 30
0.0
  0
VERTEX
  5
8E6
  8
0
 10
3539.2688148312731755
 20
1818.2616114327220203
 30
0.0
  0
SEQEND
  5
8E7
  8
0
  0
LINE
  5
6AA
  8
0
 10
3360.6700789548658577
 20
1715.1475831975519668
 30
0.0
 11
3345.4778319670749624
 21
1888.7957608644830998
 31
0.0
  0
LINE
  5
6AB
  8
0
 10
3345.4778319670749624
 20
1888.7957608644830998
 30
0.0
 11
3300.3626997407750423
 21
2057.167726523221063
 31
0.0
  0
LINE
  5
6AC
  8
0
 10
3300.3626997407750423
 20
2057.167726523221063
 30
0.0
 11
3226.6954827393051346
 21
2215.1475831975521942
 31
0.0
  0
LINE
  5
6AD
  8
0
 10
3226.6954827393051346
 20
2215.1475831975521942
 30
0.0
 11
3126.714522073846183
 21
2357.9351928840901564
 31
0.0
  0
LINE
  5
6AE
  8
0
 10
3126.714522073846183
 20
2357.9351928840901564
 30
0.0
 11
3003.4576886414060937
 21
2481.1920263165288816
 31
0.0
  0
LINE
  5
6AF
  8
0
 10
3003.4576886414060937
 20
2481.1920263165288816
 30
0.0
 11
2860.6700789548681314
 21
2581.1729869819901069
 31
0.0
  0
LINE
  5
6B0
  8
0
 10
2860.6700789548681314
 20
2581.1729869819901069
 30
0.0
 11
2702.6902222805379097
 21
2654.8402039834609241
 31
0.0
  0
LINE
  5
6B1
  8
0
 10
2702.6902222805379097
 20
2654.8402039834609241
 30
0.0
 11
2534.3182566217988096
 21
2699.9553362097608442
 31
0.0
  0
LINE
  5
6B2
  8
0
 10
2534.3182566217988096
 20
2699.9553362097608442
 30
0.0
 11
2360.6700789548672219
 21
2715.1475831975521942
 31
0.0
  0
LINE
  5
6B3
  8
0
 10
2360.6700789548672219
 20
2715.1475831975521942
 30
0.0
 11
2187.0219012879360889
 21
2699.9553362097608442
 31
0.0
  0
LINE
  5
6B4
  8
0
 10
2187.0219012879360889
 20
2699.9553362097608442
 30
0.0
 11
2018.6499356291969889
 21
2654.8402039834609241
 31
0.0
  0
LINE
  5
6B5
  8
0
 10
2018.6499356291969889
 20
2654.8402039834609241
 30
0.0
 11
1860.670078954866085
 21
2581.1729869819901069
 31
0.0
  0
LINE
  5
6B6
  8
0
 10
1860.670078954866085
 20
2581.1729869819901069
 30
0.0
 11
1717.8824692683278954
 21
2481.1920263165288816
 31
0.0
  0
LINE
  5
6B7
  8
0
 10
1717.8824692683278954
 20
2481.1920263165288816
 30
0.0
 11
1594.6256358358880334
 21
2357.9351928840901564
 31
0.0
  0
LINE
  5
6B8
  8
0
 10
1594.6256358358880334
 20
2357.9351928840901564
 30
0.0
 11
1494.644675170427945
 21
2215.1475831975521942
 31
0.0
  0
LINE
  5
6B9
  8
0
 10
1494.644675170427945
 20
2215.1475831975521942
 30
0.0
 11
1420.9774581689580373
 21
2057.167726523221063
 31
0.0
  0
LINE
  5
6BA
  8
0
 10
1420.9774581689580373
 20
2057.167726523221063
 30
0.0
 11
1375.8623259426590266
 21
1888.7957608644830998
 31
0.0
  0
LINE
  5
6BB
  8
0
 10
1375.8623259426590266
 20
1888.7957608644830998
 30
0.0
 11
1360.6700789548669945
 21
1715.1475831975519668
 31
0.0
  0
LINE
  5
6BC
  8
0
 10
3539.268814831274085
 20
1818.2616114327220203
 30
0.0
 11
3503.4576886414070032
 21
2021.3566003333530716
 31
0.0
  0
LINE
  5
6BD
  8
0
 10
3503.4576886414070032
 20
2021.3566003333530716
 30
0.0
 11
3432.923539209646151
 21
2215.1475831975521942
 31
0.0
  0
LINE
  5
6BE
  8
0
 10
3432.923539209646151
 20
2215.1475831975521942
 30
0.0
 11
3329.8095109744740512
 21
2393.746319073955874
 31
0.0
  0
LINE
  5
6BF
  8
0
 10
3329.8095109744740512
 20
2393.746319073955874
 30
0.0
 11
3197.2486715056070352
 21
2551.726175748291098
 31
0.0
  0
LINE
  5
6C0
  8
0
 10
3197.2486715056070352
 20
2551.726175748291098
 30
0.0
 11
3039.2688148312731755
 21
2684.2870152171599329
 31
0.0
  0
LINE
  5
6C1
  8
0
 10
3039.2688148312731755
 20
2684.2870152171599329
 30
0.0
 11
2860.6700789548681314
 21
2787.4010434523320328
 31
0.0
  0
LINE
  5
6C2
  8
0
 10
2860.6700789548681314
 20
2787.4010434523320328
 30
0.0
 11
2666.8790960906690088
 21
2857.9351928840919754
 31
0.0
  0
LINE
  5
6C3
  8
0
 10
2666.8790960906690088
 20
2857.9351928840919754
 30
0.0
 11
2463.784107190038867
 21
2893.7463190739617858
 31
0.0
  0
LINE
  5
6C4
  8
0
 10
2463.784107190038867
 20
2893.7463190739617858
 30
0.0
 11
2257.5560507196951221
 21
2893.7463190739617858
 31
0.0
  0
LINE
  5
6C5
  8
0
 10
2257.5560507196951221
 20
2893.7463190739617858
 30
0.0
 11
2054.4610618190631612
 21
2857.9351928840919754
 31
0.0
  0
LINE
  5
6C6
  8
0
 10
2054.4610618190631612
 20
2857.9351928840919754
 30
0.0
 11
1860.670078954866085
 21
2787.4010434523311233
 31
0.0
  0
LINE
  5
6C7
  8
0
 10
1860.670078954866085
 20
2787.4010434523311233
 30
0.0
 11
1682.0713430784610409
 21
2684.2870152171599329
 31
0.0
  0
LINE
  5
6C8
  8
0
 10
1682.0713430784610409
 20
2684.2870152171599329
 30
0.0
 11
1524.0914864041269539
 21
2551.7261757482901885
 31
0.0
  0
LINE
  5
6C9
  8
0
 10
1524.0914864041269539
 20
2551.7261757482901885
 30
0.0
 11
1391.5306469352590284
 21
2393.7463190739581478
 31
0.0
  0
LINE
  5
6CA
  8
0
 10
1391.5306469352590284
 20
2393.7463190739581478
 30
0.0
 11
1288.4166187000869286
 21
2215.1475831975521942
 31
0.0
  0
LINE
  5
6CB
  8
0
 10
1288.4166187000869286
 20
2215.1475831975521942
 30
0.0
 11
1217.8824692683278954
 21
2021.3566003333530716
 31
0.0
  0
LINE
  5
6CC
  8
0
 10
1217.8824692683278954
 20
2021.3566003333530716
 30
0.0
 11
1182.0713430784599041
 21
1818.2616114327220203
 31
0.0
  0
ENDSEC
  0
EOF
